<?xml version="1.0" standalone="no"?>
<!DOCTYPE svg PUBLIC "-//W3C//DTD SVG 20010904//EN"
 "http://www.w3.org/TR/2001/REC-SVG-20010904/DTD/svg10.dtd">
<svg version="1.0" xmlns="http://www.w3.org/2000/svg"
 width="534.000000pt" height="534.000000pt" viewBox="0 0 534.000000 534.000000"
 preserveAspectRatio="xMidYMid meet">
<metadata>
Created by potrace 1.16, written by Peter Selinger 2001-2019
</metadata>
<g transform="translate(0.000000,534.000000) scale(0.100000,-0.100000)"
fill="#000000" stroke="none">
<path d="M1435 4014 c-589 -504 -1105 -949 -1147 -988 l-77 -71 61 -162 60
-163 184 0 184 0 0 -1138 0 -1137 98 -98 97 -97 515 0 515 0 98 98 97 97 0
836 0 836 107 6 c58 4 276 7 485 7 l378 0 0 -230 0 -230 -300 0 -300 0 0 -185
0 -185 393 0 392 0 95 95 95 95 3 412 3 412 -93 93 -93 93 -680 0 -680 0 -93
-93 -92 -92 0 -843 0 -842 -330 0 -330 0 0 1138 0 1137 -93 93 c-63 63 -100
92 -116 92 -12 0 -21 4 -19 9 2 5 400 349 886 765 779 668 885 756 900 744 9
-7 156 -133 327 -279 l310 -265 83 -21 c46 -12 91 -19 101 -16 10 3 51 45 90
94 l71 88 0 176 0 175 70 0 70 0 0 -408 c0 -458 2 -475 69 -545 20 -21 156
-142 304 -270 147 -127 267 -235 267 -239 0 -5 -39 -8 -87 -8 l-88 0 -87 -87
-88 -88 0 -342 0 -343 185 0 185 0 0 245 0 245 248 0 247 0 61 165 61 165 -46
42 c-25 24 -227 200 -448 392 l-403 349 0 456 0 456 -98 98 -97 97 -255 0
-255 0 -92 -92 -92 -93 -3 -82 -3 -83 -250 215 -250 214 -120 1 -121 0 -1069
-916z"/>
</g>
</svg>
