<?xml version="1.0" standalone="no"?>
<!DOCTYPE svg PUBLIC "-//W3C//DTD SVG 20010904//EN"
 "http://www.w3.org/TR/2001/REC-SVG-20010904/DTD/svg10.dtd">
<svg version="1.0" xmlns="http://www.w3.org/2000/svg"
 width="232.000000pt" height="212.000000pt" viewBox="0 0 232.000000 212.000000"
 preserveAspectRatio="xMidYMid meet">
<metadata>
Created by potrace 1.16, written by Peter Selinger 2001-2019
</metadata>
<g transform="translate(0.000000,212.000000) scale(0.100000,-0.100000)"
fill="#000000" stroke="none">
<path d="M835 2023 c-129 -31 -307 -116 -378 -182 -101 -93 -202 -267 -227
-389 -17 -81 -24 -393 -11 -464 24 -128 87 -274 180 -417 22 -35 41 -68 41
-72 0 -9 17 -31 60 -79 34 -39 127 -102 268 -182 32 -18 95 -35 222 -60 30 -6
163 -12 295 -12 228 -1 243 0 300 22 167 65 201 92 333 265 34 44 57 88 67
125 9 31 21 68 27 82 7 14 13 104 16 208 4 167 2 190 -17 255 -12 40 -26 79
-30 87 -5 9 -12 31 -16 50 -7 33 -16 56 -71 178 -13 29 -24 55 -24 59 0 9
-137 199 -174 241 -17 19 -58 53 -90 74 -53 34 -66 38 -125 38 -62 0 -183 30
-221 55 -38 25 -112 54 -124 49 -8 -3 -32 4 -54 15 -104 53 -180 70 -247 54z
m144 -43 c29 -12 75 -32 102 -45 26 -14 59 -25 72 -25 25 0 86 -22 100 -36 19
-20 157 -54 218 -54 55 0 72 -5 115 -31 62 -39 94 -73 170 -179 73 -102 162
-282 179 -360 4 -19 11 -41 16 -50 4 -8 17 -45 28 -82 17 -55 21 -93 21 -210
-1 -144 -4 -168 -37 -291 -33 -121 -186 -307 -295 -356 -151 -67 -143 -66
-388 -65 -124 0 -250 6 -280 12 -145 29 -191 44 -259 84 -40 24 -81 48 -91 53
-90 52 -135 94 -184 175 -18 30 -52 85 -74 121 -70 115 -121 240 -142 353 -14
76 -8 353 10 438 16 79 77 208 133 283 35 46 135 145 147 145 5 0 15 6 22 13
44 41 266 123 338 126 14 1 49 -8 79 -19z"/>
<path d="M788 1749 c-68 -10 -113 -31 -130 -62 -18 -31 -24 -874 -7 -1002 7
-49 15 -132 18 -184 4 -62 10 -96 19 -99 17 -5 16 141 -3 293 -16 126 -19 266
-9 377 l7 66 41 4 c92 9 104 -4 113 -119 l5 -78 -76 -39 c-102 -51 -100 -66
16 -86 47 -8 90 -18 94 -22 4 -5 15 -8 24 -8 10 0 38 -16 64 -35 l46 -36 0
-100 c0 -157 -21 -179 -173 -179 -64 0 -82 3 -93 17 -12 17 -13 17 -19 0 -16
-41 -1 -47 111 -47 181 0 204 23 204 203 l0 114 -44 41 c-25 23 -57 44 -73 48
-15 4 -32 10 -38 14 -5 5 -36 11 -67 15 -32 4 -58 10 -58 14 0 3 24 18 53 32
48 25 52 30 55 65 7 76 -8 163 -33 192 -21 25 -29 27 -88 25 l-65 -1 -4 111
c-3 62 -3 114 -2 116 2 2 15 -4 28 -13 26 -16 56 -22 56 -9 0 3 -7 14 -16 24
-15 17 -13 18 23 28 50 14 159 94 167 124 3 12 6 51 6 85 0 49 -5 71 -21 93
-22 32 -31 33 -131 18z m108 -36 c14 -19 18 -115 6 -145 -16 -40 -167 -128
-219 -128 -10 0 -13 21 -12 78 1 160 17 185 129 200 36 5 69 10 74 11 5 0 15
-7 22 -16z"/>
<path d="M1336 1683 c-9 -9 -6 -425 3 -561 5 -68 13 -118 21 -125 10 -9 14 -9
17 1 3 8 26 12 66 12 l62 0 0 -302 c0 -215 3 -302 11 -305 9 -3 13 79 16 296
2 165 6 302 8 304 3 3 65 10 139 15 73 6 136 13 139 17 17 17 -23 23 -115 17
-66 -5 -99 -4 -93 2 22 22 10 139 -23 236 l-32 95 -83 3 -83 3 -14 -33 c-13
-30 -14 -18 -15 144 0 161 -5 200 -24 181z m207 -360 c29 -74 47 -147 47 -195
0 -47 -1 -50 -37 -65 -21 -9 -68 -18 -105 -21 l-66 -5 -7 67 c-10 89 -3 162
20 214 l19 42 57 0 c56 0 57 0 72 -37z"/>
<path d="M1216 1449 c-3 -8 -7 -96 -8 -195 -3 -162 -5 -184 -22 -203 -24 -26
-30 -26 -111 1 -62 20 -68 24 -93 72 -23 44 -27 66 -32 171 -6 153 -24 159
-28 10 -4 -176 31 -247 142 -283 87 -29 117 -28 147 4 23 25 24 30 27 221 3
129 0 199 -7 206 -7 7 -12 6 -15 -4z"/>
<path d="M1134 883 c-45 -39 -67 -110 -72 -233 l-4 -116 43 -35 c51 -42 87
-56 168 -65 58 -6 58 -6 85 29 32 42 76 207 76 288 0 49 -3 58 -33 87 -34 33
-71 44 -192 57 -39 5 -54 2 -71 -12z m160 -32 c108 -19 122 -53 87 -212 -21
-96 -41 -148 -64 -167 -24 -20 -119 1 -180 40 l-49 32 4 100 c8 152 48 232
113 222 17 -3 57 -10 89 -15z"/>
</g>
</svg>
