<svg id="Layer_1" data-name="Layer 1" xmlns="http://www.w3.org/2000/svg" xmlns:xlink="http://www.w3.org/1999/xlink" viewBox="0 0 298.4 297.68"><defs><clipPath id="clip-path" transform="translate(-17.48 -17.75)"><rect x="15.21" y="17.75" width="299.06" height="297.68" style="fill:none"/></clipPath></defs><title> Chris logo file</title><rect x="185.46" y="181.82" width="4" height="29" style="fill:none;stroke:#3cad6f;stroke-linejoin:bevel;stroke-width:9px"/><g style="clip-path:url(#clip-path)"><polyline points="101.05 275.32 106.55 275.32 106.55 181.53" style="fill:none;stroke:#3aad6e;stroke-linejoin:bevel;stroke-width:17px"/></g><polygon points="267.67 125.75 224.91 90.64 224.91 29.2 195.97 29.2 195.97 11.75 229.65 11.75 229.65 73.19 230.79 74.62 293.96 125.75 293.9 125.75 285.67 125.75 267.67 125.75" style="fill:#3cad6f"/><g style="clip-path:url(#clip-path)"><polygon points="267.67 125.75 224.91 90.64 224.91 29.2 195.97 29.2 195.97 11.75 229.65 11.75 229.65 73.19 230.79 74.62 293.96 125.75 293.9 125.75 285.67 125.75 267.67 125.75" style="fill:none;stroke:#3cad6f;stroke-linejoin:bevel;stroke-width:9px"/></g><polygon points="190.62 42.16 144.69 3.44 3.4 123.41 19.31 123.41 140.29 20.68 188.08 61.26 190.47 60.74 190.47 42.16 190.62 42.16" style="fill:#3cad6f"/><g style="clip-path:url(#clip-path)"><polygon points="190.62 42.16 144.69 3.44 3.4 123.41 19.31 123.41 140.29 20.68 188.08 61.26 190.47 60.74 190.47 42.16 190.62 42.16" style="fill:none;stroke:#3aad6e;stroke-linejoin:bevel;stroke-width:9px"/></g><polyline points="179.05 180.78 191.96 180.78 191.96 181.76 191.96 213.16 191.96 213.96 182.21 213.96" style="fill:none;stroke:#3aad6e;stroke-linejoin:bevel;stroke-width:9px"/><g style="clip-path:url(#clip-path)"><polyline points="240.57 184.95 240.57 143.36 274.87 143.36 282.52 143.36 282.57 143.36 223.84 92.83 222.78 91.43 222.78 30.7 191.47 30.7 191.47 63.45 189.08 63.97 141.29 23.39 0 143.36 34.29 143.36 34.29 294.18 98.35 294.18 98.35 179.78 181.69 179.78 181.69 227.49 181.69 230.21 133.14 230.21" style="fill:none;stroke:#152f3e;stroke-linejoin:bevel;stroke-width:7px"/></g></svg>